<?xml version="1.0" standalone="no"?>
<!DOCTYPE svg PUBLIC "-//W3C//DTD SVG 20010904//EN"
 "http://www.w3.org/TR/2001/REC-SVG-20010904/DTD/svg10.dtd">
<svg version="1.0" xmlns="http://www.w3.org/2000/svg"
 width="1536.000000pt" height="1024.000000pt" viewBox="0 0 1536.000000 1024.000000"
 preserveAspectRatio="xMidYMid meet">

<g transform="translate(0.000000,1024.000000) scale(0.100000,-0.100000)"
fill="#000000" stroke="none">
<path d="M2670 6449 c-133 -22 -278 -126 -342 -245 -100 -185 -70 -411 75
-570 67 -73 123 -105 277 -159 161 -56 217 -83 290 -141 57 -45 160 -156 160
-172 0 -20 -183 -183 -244 -217 -36 -20 -122 -55 -193 -79 -164 -55 -204 -76
-275 -144 -171 -163 -195 -429 -57 -633 51 -76 108 -124 199 -168 74 -36 76
-36 206 -36 130 0 130 0 205 37 178 88 279 249 279 442 0 129 -40 238 -120
329 l-42 48 48 42 c26 23 79 68 118 99 l71 58 155 -158 c86 -86 284 -292 440
-457 157 -165 307 -322 334 -348 65 -64 121 -101 142 -93 25 10 12 118 -26
212 -83 207 -337 590 -623 939 -49 61 -94 115 -99 121 -5 8 19 45 68 105 309
376 626 862 678 1038 17 57 22 146 8 155 -19 11 -84 -36 -178 -129 -56 -55
-243 -251 -417 -435 -173 -184 -353 -372 -399 -417 l-83 -83 -81 68 c-44 37
-98 82 -119 100 l-37 34 30 31 c143 150 173 382 75 575 -64 127 -213 231 -358
252 -80 11 -90 11 -165 -1z m223 -242 c201 -118 191 -396 -18 -493 -93 -44
-214 -26 -293 42 -135 115 -121 345 26 438 60 37 93 46 168 42 56 -2 82 -9
117 -29z m551 -978 c55 -43 18 -139 -54 -139 -19 0 -40 9 -55 25 -73 72 28
178 109 114z m-561 -609 c163 -84 207 -297 88 -432 -108 -122 -304 -123 -409
-4 -49 56 -65 95 -70 171 -4 58 0 80 18 123 28 65 105 136 169 157 61 19 149
13 204 -15z"/>
<path d="M5401 6029 c-371 -73 -611 -385 -611 -794 0 -316 141 -571 388 -703
296 -157 694 -98 901 135 48 54 124 190 136 244 6 25 6 25 -124 52 -71 15
-136 29 -143 32 -9 4 -23 -14 -41 -49 -105 -216 -365 -289 -580 -162 -101 58
-183 187 -212 328 -53 266 49 515 253 615 73 36 80 38 177 38 94 0 105 -2 168
-33 81 -40 157 -114 193 -188 15 -30 29 -54 33 -54 8 0 275 62 279 65 8 7 -42
114 -79 171 -95 146 -260 261 -426 298 -77 17 -238 20 -312 5z"/>
<path d="M8420 5240 l0 -761 138 3 137 3 0 513 c0 281 1 512 3 512 1 0 18 -33
36 -72 19 -40 80 -167 136 -283 56 -115 138 -283 181 -373 l78 -163 102 3 103
3 210 438 c115 240 212 437 215 437 4 0 6 -228 6 -507 l0 -508 143 -3 142 -3
0 761 0 760 -177 0 -178 0 -230 -490 c-126 -269 -233 -486 -236 -482 -3 4
-109 224 -234 490 l-228 482 -173 0 -174 0 0 -760z"/>
<path d="M7700 5730 l0 -130 -92 0 -93 0 2 -122 2 -123 90 -3 90 -3 3 -327 c3
-319 4 -328 27 -379 30 -67 92 -125 165 -152 45 -17 79 -21 164 -21 59 0 124
3 145 6 l37 7 0 118 0 118 -77 -2 c-89 -2 -133 12 -160 52 -16 23 -19 58 -23
304 l-5 277 138 0 137 0 0 125 0 125 -135 0 -134 0 -3 128 -3 127 -137 3 -138
3 0 -131z"/>
<path d="M11580 5730 l0 -130 -90 0 -90 0 0 -125 0 -125 89 0 90 0 3 -327 3
-328 28 -57 c59 -120 152 -168 325 -168 59 0 124 3 145 6 l37 7 0 118 0 119
-91 0 c-86 0 -92 1 -119 28 -44 45 -50 85 -50 355 l0 247 135 0 135 0 0 125 0
125 -135 0 -135 0 0 130 0 130 -140 0 -140 0 0 -130z"/>
<path d="M10705 5624 c-141 -19 -243 -62 -319 -134 -54 -51 -97 -129 -110
-197 l-5 -33 134 0 c123 0 134 2 140 19 29 93 184 146 316 108 86 -25 130 -85
145 -194 l6 -51 -223 -5 c-233 -5 -282 -12 -372 -56 -68 -33 -123 -86 -154
-149 -24 -50 -28 -69 -28 -148 0 -81 3 -97 30 -149 36 -70 104 -127 180 -151
65 -21 226 -29 296 -15 73 15 162 58 227 110 l52 41 0 -70 0 -71 133 3 132 3
-1 370 c-1 396 -6 449 -51 538 -71 141 -212 221 -410 231 -49 2 -101 2 -118 0z
m295 -692 c0 -51 -29 -127 -64 -169 -70 -81 -232 -118 -329 -75 -78 34 -109
120 -72 192 30 59 105 76 338 79 l127 1 0 -28z"/>
<path d="M12641 5615 c-227 -43 -395 -214 -437 -445 -29 -160 3 -361 76 -470
78 -117 202 -204 336 -236 102 -24 257 -15 347 19 85 33 176 96 220 153 38 49
84 131 77 138 -3 2 -58 14 -124 25 l-119 22 -14 -21 c-25 -35 -66 -70 -108
-92 -51 -27 -159 -35 -220 -18 -91 25 -172 126 -188 233 l-6 37 406 0 406 0
-6 113 c-10 193 -52 303 -152 403 -93 94 -199 139 -344 149 -45 2 -107 -1
-150 -10z m235 -243 c73 -37 134 -128 134 -198 0 -18 -12 -19 -261 -19 l-261
0 7 40 c13 83 78 160 161 191 55 20 167 13 220 -14z"/>
<path d="M6370 5218 c0 -211 5 -410 10 -443 21 -129 96 -231 209 -284 51 -24
67 -26 176 -26 114 0 124 2 185 31 36 17 89 52 118 78 l52 48 0 -71 0 -71 135
0 135 0 0 560 0 560 -140 0 -140 0 0 -325 c0 -196 -4 -344 -11 -375 -14 -66
-62 -127 -124 -159 -39 -21 -64 -26 -121 -26 -90 0 -132 26 -172 105 l-27 55
0 362 0 363 -142 0 -143 0 0 -382z"/>
</g>
</svg>
