<?xml version="1.0" standalone="no"?>
<!DOCTYPE svg PUBLIC "-//W3C//DTD SVG 20010904//EN"
 "http://www.w3.org/TR/2001/REC-SVG-20010904/DTD/svg10.dtd">
<svg version="1.0" xmlns="http://www.w3.org/2000/svg"
 width="1024.000000pt" height="1024.000000pt" viewBox="0 0 1024.000000 1024.000000"
 preserveAspectRatio="xMidYMid meet">

<g transform="translate(0.000000,1024.000000) scale(0.100000,-0.100000)"
fill="#000000" stroke="none">
<path d="M5722 7668 c-17 -17 -17 -2089 0 -2106 17 -17 348 -17 370 1 14 11
16 123 22 1048 6 944 5 1038 -9 1053 -14 13 -44 16 -194 16 -124 0 -181 -4
-189 -12z"/>
<path d="M1705 7640 c-199 -43 -383 -173 -453 -321 -62 -129 -78 -295 -42
-435 51 -200 188 -318 475 -408 61 -19 177 -56 260 -81 299 -93 370 -155 352
-307 -8 -67 -33 -106 -91 -146 -77 -51 -140 -65 -275 -60 -128 6 -191 24 -275
80 -50 32 -110 112 -122 161 -3 16 -13 31 -20 34 -15 5 -327 -64 -357 -79 -14
-7 -17 -16 -12 -41 11 -53 80 -189 124 -244 152 -189 465 -300 771 -274 132
12 219 35 330 88 79 38 109 59 176 127 121 121 174 254 174 433 -1 242 -120
410 -363 511 -40 17 -171 60 -292 97 -241 72 -343 115 -392 164 -74 73 -68
190 12 267 114 110 350 117 499 15 46 -32 106 -118 106 -154 0 -10 6 -20 13
-23 7 -2 94 15 192 39 208 51 204 46 165 163 -47 139 -145 246 -295 319 -138
68 -221 86 -410 91 -132 3 -176 0 -250 -16z"/>
<path d="M3080 7220 l0 -190 -115 0 c-103 0 -115 -2 -125 -19 -5 -11 -10 -79
-10 -151 0 -72 5 -140 10 -151 10 -17 22 -19 125 -19 l114 0 3 -412 c3 -397 4
-415 25 -471 59 -157 186 -250 380 -279 118 -17 330 15 355 55 14 21 10 303
-5 315 -8 7 -28 6 -67 -4 -126 -32 -227 -6 -261 70 -17 37 -19 71 -19 383 l0
343 178 2 177 3 3 159 c2 121 -1 161 -10 168 -7 4 -88 8 -180 8 l-168 0 -2
188 -3 187 -202 3 -203 2 0 -190z"/>
<path d="M6896 7044 c-350 -63 -575 -364 -576 -771 0 -188 39 -334 126 -464
137 -206 370 -311 659 -296 165 8 289 53 422 151 89 65 200 213 177 235 -5 5
-58 29 -119 54 -60 25 -126 52 -146 61 l-36 15 -32 -49 c-38 -58 -95 -103
-171 -131 -73 -28 -221 -24 -292 8 -61 28 -134 96 -163 153 -25 50 -48 150
-36 162 4 4 241 9 526 10 l520 3 3 65 c4 88 -15 248 -40 329 -108 354 -430
536 -822 465z m278 -310 c97 -33 184 -142 202 -253 l7 -41 -333 0 -333 0 7 38
c18 116 103 218 213 258 53 18 179 18 237 -2z"/>
<path d="M3954 7015 c-4 -9 -1 -30 6 -48 60 -151 379 -914 556 -1332 19 -44
34 -85 34 -91 0 -7 -37 -99 -81 -206 -113 -267 -151 -367 -144 -378 4 -6 89
-10 205 -10 196 0 199 0 211 23 33 59 819 2034 814 2045 -3 9 -52 12 -198 12
-139 0 -198 -3 -209 -12 -15 -12 -129 -317 -294 -783 -43 -121 -81 -224 -84
-228 -4 -4 -30 59 -59 140 -166 464 -315 860 -329 871 -12 9 -72 12 -219 12
-173 0 -205 -2 -209 -15z"/>
<path d="M8741 5667 c-158 -85 -526 -447 -1058 -1042 -411 -460 -532 -614
-689 -880 -32 -55 -87 -130 -122 -167 -58 -61 -68 -68 -120 -78 -146 -27 -172
-34 -240 -67 -184 -87 -312 -293 -312 -500 0 -97 15 -163 57 -253 47 -99 153
-207 244 -250 174 -80 317 -80 484 0 310 149 412 512 230 814 -19 32 -35 63
-35 68 0 9 36 55 360 448 455 553 862 1078 1027 1325 150 225 294 516 278 564
-3 11 -19 24 -35 29 -23 8 -36 6 -69 -11z m-1211 -1597 c25 -25 26 -72 1 -94
-28 -25 -79 -17 -104 15 -47 64 46 136 103 79z m-642 -844 c65 -33 136 -113
158 -179 70 -207 -69 -421 -282 -435 -62 -4 -79 -1 -130 22 -114 52 -183 148
-192 267 -18 250 233 433 446 325z"/>
<path d="M6076 5184 c-140 -34 -288 -147 -353 -269 -47 -90 -64 -158 -64 -260
0 -167 49 -284 171 -406 122 -123 257 -176 425 -167 113 6 215 41 306 103 l67
45 123 -41 c68 -22 170 -63 226 -89 l101 -48 102 134 c56 73 100 138 98 144
-2 6 -107 58 -233 116 -127 58 -238 114 -247 126 -13 15 -18 38 -18 87 0 139
-55 266 -160 371 -36 36 -93 80 -127 98 -125 66 -286 88 -417 56z m271 -272
c65 -34 110 -78 140 -140 24 -50 28 -69 28 -147 0 -81 -3 -95 -30 -143 -120
-218 -443 -202 -548 27 -30 65 -30 187 0 253 30 65 99 131 164 157 71 28 184
25 246 -7z"/>
<path d="M1282 5098 c-19 -19 -17 -1981 2 -1997 9 -8 70 -11 197 -9 l184 3 5
638 c3 413 9 638 15 638 6 1 125 -227 265 -507 l255 -509 144 -3 c102 -2 147
1 158 10 8 7 130 241 270 521 140 280 257 506 261 502 4 -4 9 -295 12 -648 l5
-642 190 0 190 0 0 1005 0 1005 -209 3 c-151 2 -212 -1 -223 -10 -8 -6 -154
-291 -325 -632 -171 -342 -312 -622 -313 -624 -2 -2 -146 279 -321 625 -174
345 -322 631 -328 635 -20 13 -421 9 -434 -4z"/>
<path d="M4205 4574 c-87 -18 -213 -78 -282 -133 -100 -80 -193 -233 -239
-391 -16 -53 -19 -97 -19 -240 1 -165 3 -180 29 -260 36 -108 62 -160 121
-238 81 -108 220 -198 365 -238 103 -28 330 -26 435 4 106 31 200 82 274 148
64 59 156 186 148 207 -5 12 -280 127 -305 127 -6 0 -12 -4 -12 -9 0 -6 -25
-37 -55 -69 -79 -86 -131 -106 -265 -107 -95 0 -111 3 -167 29 -106 48 -177
144 -190 256 l-6 50 509 0 c280 0 515 4 523 9 11 7 13 36 8 152 -9 239 -70
401 -202 535 -81 82 -196 145 -311 169 -87 18 -268 18 -359 -1z m293 -299 c77
-23 131 -70 171 -147 18 -36 35 -85 38 -109 l5 -44 -332 3 -331 3 6 32 c10 46
42 116 71 154 80 105 233 149 372 108z"/>
<path d="M8243 4293 l-152 -4 -166 -208 c-91 -115 -165 -216 -165 -225 0 -18
-21 -18 376 9 544 39 907 106 1120 210 107 52 159 102 149 144 -9 37 -31 58
-68 65 -39 7 -881 14 -1094 9z"/>
</g>
</svg>
