<svg width="168" height="34" viewBox="0 0 168 34" fill="none" xmlns="http://www.w3.org/2000/svg">
<path d="M9.888 33.408C8.128 33.408 6.336 33.184 4.512 32.736C2.72 32.32 1.216 31.76 0 31.056L0.288 24.384H1.68L3.168 27.696C3.616 28.624 4.08 29.392 4.56 30C5.04 30.608 5.68 31.072 6.48 31.392C7.024 31.616 7.536 31.776 8.016 31.872C8.528 31.936 9.088 31.968 9.696 31.968C11.648 31.968 13.184 31.472 14.304 30.48C15.456 29.456 16.032 28.112 16.032 26.448C16.032 24.944 15.632 23.76 14.832 22.896C14.064 22.032 12.816 21.2 11.088 20.4L9.12 19.536C6.432 18.352 4.304 16.976 2.736 15.408C1.2 13.84 0.432 11.76 0.432 9.168C0.432 7.248 0.912 5.616 1.872 4.272C2.864 2.896 4.224 1.84 5.952 1.104C7.68 0.368 9.696 0 12 0C13.696 0 15.28 0.224 16.752 0.672C18.256 1.12 19.568 1.728 20.688 2.496L20.352 8.448H18.96L17.184 4.848C16.672 3.792 16.176 3.04 15.696 2.592C15.248 2.112 14.688 1.808 14.016 1.68C13.632 1.616 13.296 1.568 13.008 1.536C12.752 1.504 12.4 1.488 11.952 1.488C10.384 1.488 9.024 1.952 7.872 2.88C6.752 3.776 6.192 5.024 6.192 6.624C6.192 8.16 6.624 9.408 7.488 10.368C8.352 11.328 9.6 12.176 11.232 12.912L13.392 13.824C16.496 15.168 18.72 16.608 20.064 18.144C21.408 19.648 22.08 21.584 22.08 23.952C22.08 26.768 21.008 29.056 18.864 30.816C16.752 32.544 13.76 33.408 9.888 33.408Z" fill="#4ECAFE"/>
<path d="M9.888 33.408C8.128 33.408 6.336 33.184 4.512 32.736C2.72 32.32 1.216 31.76 0 31.056L0.288 24.384H1.68L3.168 27.696C3.616 28.624 4.08 29.392 4.56 30C5.04 30.608 5.68 31.072 6.48 31.392C7.024 31.616 7.536 31.776 8.016 31.872C8.528 31.936 9.088 31.968 9.696 31.968C11.648 31.968 13.184 31.472 14.304 30.48C15.456 29.456 16.032 28.112 16.032 26.448C16.032 24.944 15.632 23.76 14.832 22.896C14.064 22.032 12.816 21.2 11.088 20.4L9.12 19.536C6.432 18.352 4.304 16.976 2.736 15.408C1.2 13.84 0.432 11.76 0.432 9.168C0.432 7.248 0.912 5.616 1.872 4.272C2.864 2.896 4.224 1.84 5.952 1.104C7.68 0.368 9.696 0 12 0C13.696 0 15.28 0.224 16.752 0.672C18.256 1.12 19.568 1.728 20.688 2.496L20.352 8.448H18.96L17.184 4.848C16.672 3.792 16.176 3.04 15.696 2.592C15.248 2.112 14.688 1.808 14.016 1.68C13.632 1.616 13.296 1.568 13.008 1.536C12.752 1.504 12.4 1.488 11.952 1.488C10.384 1.488 9.024 1.952 7.872 2.88C6.752 3.776 6.192 5.024 6.192 6.624C6.192 8.16 6.624 9.408 7.488 10.368C8.352 11.328 9.6 12.176 11.232 12.912L13.392 13.824C16.496 15.168 18.72 16.608 20.064 18.144C21.408 19.648 22.08 21.584 22.08 23.952C22.08 26.768 21.008 29.056 18.864 30.816C16.752 32.544 13.76 33.408 9.888 33.408Z" fill="#883FFF"/>
<path d="M9.888 33.408C8.128 33.408 6.336 33.184 4.512 32.736C2.72 32.32 1.216 31.76 0 31.056L0.288 24.384H1.68L3.168 27.696C3.616 28.624 4.08 29.392 4.56 30C5.04 30.608 5.68 31.072 6.48 31.392C7.024 31.616 7.536 31.776 8.016 31.872C8.528 31.936 9.088 31.968 9.696 31.968C11.648 31.968 13.184 31.472 14.304 30.48C15.456 29.456 16.032 28.112 16.032 26.448C16.032 24.944 15.632 23.76 14.832 22.896C14.064 22.032 12.816 21.2 11.088 20.4L9.12 19.536C6.432 18.352 4.304 16.976 2.736 15.408C1.2 13.84 0.432 11.76 0.432 9.168C0.432 7.248 0.912 5.616 1.872 4.272C2.864 2.896 4.224 1.84 5.952 1.104C7.68 0.368 9.696 0 12 0C13.696 0 15.28 0.224 16.752 0.672C18.256 1.12 19.568 1.728 20.688 2.496L20.352 8.448H18.96L17.184 4.848C16.672 3.792 16.176 3.04 15.696 2.592C15.248 2.112 14.688 1.808 14.016 1.68C13.632 1.616 13.296 1.568 13.008 1.536C12.752 1.504 12.4 1.488 11.952 1.488C10.384 1.488 9.024 1.952 7.872 2.88C6.752 3.776 6.192 5.024 6.192 6.624C6.192 8.16 6.624 9.408 7.488 10.368C8.352 11.328 9.6 12.176 11.232 12.912L13.392 13.824C16.496 15.168 18.72 16.608 20.064 18.144C21.408 19.648 22.08 21.584 22.08 23.952C22.08 26.768 21.008 29.056 18.864 30.816C16.752 32.544 13.76 33.408 9.888 33.408Z" fill="url(#paint0_linear_307_1112)"/>
<path d="M9.888 33.408C8.128 33.408 6.336 33.184 4.512 32.736C2.72 32.32 1.216 31.76 0 31.056L0.288 24.384H1.68L3.168 27.696C3.616 28.624 4.08 29.392 4.56 30C5.04 30.608 5.68 31.072 6.48 31.392C7.024 31.616 7.536 31.776 8.016 31.872C8.528 31.936 9.088 31.968 9.696 31.968C11.648 31.968 13.184 31.472 14.304 30.48C15.456 29.456 16.032 28.112 16.032 26.448C16.032 24.944 15.632 23.76 14.832 22.896C14.064 22.032 12.816 21.2 11.088 20.4L9.12 19.536C6.432 18.352 4.304 16.976 2.736 15.408C1.2 13.84 0.432 11.76 0.432 9.168C0.432 7.248 0.912 5.616 1.872 4.272C2.864 2.896 4.224 1.84 5.952 1.104C7.68 0.368 9.696 0 12 0C13.696 0 15.28 0.224 16.752 0.672C18.256 1.12 19.568 1.728 20.688 2.496L20.352 8.448H18.96L17.184 4.848C16.672 3.792 16.176 3.04 15.696 2.592C15.248 2.112 14.688 1.808 14.016 1.68C13.632 1.616 13.296 1.568 13.008 1.536C12.752 1.504 12.4 1.488 11.952 1.488C10.384 1.488 9.024 1.952 7.872 2.88C6.752 3.776 6.192 5.024 6.192 6.624C6.192 8.16 6.624 9.408 7.488 10.368C8.352 11.328 9.6 12.176 11.232 12.912L13.392 13.824C16.496 15.168 18.72 16.608 20.064 18.144C21.408 19.648 22.08 21.584 22.08 23.952C22.08 26.768 21.008 29.056 18.864 30.816C16.752 32.544 13.76 33.408 9.888 33.408Z" fill="url(#paint1_linear_307_1112)"/>
<path d="M24.3202 32.592V31.584L25.2803 31.296C25.9523 31.072 26.3843 30.784 26.5763 30.432C26.7682 30.048 26.8643 29.52 26.8643 28.848V4.56C26.8643 3.92 26.7682 3.424 26.5763 3.072C26.3843 2.688 25.9683 2.384 25.3283 2.16L24.3202 1.872V0.864H36.2243V1.872L35.3122 2.16C34.7042 2.384 34.2882 2.688 34.0643 3.072C33.8722 3.456 33.7762 3.984 33.7762 4.656V31.152H40.8323C41.9203 31.152 42.7363 30.88 43.2803 30.336C43.8242 29.792 44.3363 29.008 44.8162 27.984L46.5923 24H47.9363L47.4562 32.592H24.3202Z" fill="#4ECAFE"/>
<path d="M24.3202 32.592V31.584L25.2803 31.296C25.9523 31.072 26.3843 30.784 26.5763 30.432C26.7682 30.048 26.8643 29.52 26.8643 28.848V4.56C26.8643 3.92 26.7682 3.424 26.5763 3.072C26.3843 2.688 25.9683 2.384 25.3283 2.16L24.3202 1.872V0.864H36.2243V1.872L35.3122 2.16C34.7042 2.384 34.2882 2.688 34.0643 3.072C33.8722 3.456 33.7762 3.984 33.7762 4.656V31.152H40.8323C41.9203 31.152 42.7363 30.88 43.2803 30.336C43.8242 29.792 44.3363 29.008 44.8162 27.984L46.5923 24H47.9363L47.4562 32.592H24.3202Z" fill="#883FFF"/>
<path d="M24.3202 32.592V31.584L25.2803 31.296C25.9523 31.072 26.3843 30.784 26.5763 30.432C26.7682 30.048 26.8643 29.52 26.8643 28.848V4.56C26.8643 3.92 26.7682 3.424 26.5763 3.072C26.3843 2.688 25.9683 2.384 25.3283 2.16L24.3202 1.872V0.864H36.2243V1.872L35.3122 2.16C34.7042 2.384 34.2882 2.688 34.0643 3.072C33.8722 3.456 33.7762 3.984 33.7762 4.656V31.152H40.8323C41.9203 31.152 42.7363 30.88 43.2803 30.336C43.8242 29.792 44.3363 29.008 44.8162 27.984L46.5923 24H47.9363L47.4562 32.592H24.3202Z" fill="url(#paint2_linear_307_1112)"/>
<path d="M24.3202 32.592V31.584L25.2803 31.296C25.9523 31.072 26.3843 30.784 26.5763 30.432C26.7682 30.048 26.8643 29.52 26.8643 28.848V4.56C26.8643 3.92 26.7682 3.424 26.5763 3.072C26.3843 2.688 25.9683 2.384 25.3283 2.16L24.3202 1.872V0.864H36.2243V1.872L35.3122 2.16C34.7042 2.384 34.2882 2.688 34.0643 3.072C33.8722 3.456 33.7762 3.984 33.7762 4.656V31.152H40.8323C41.9203 31.152 42.7363 30.88 43.2803 30.336C43.8242 29.792 44.3363 29.008 44.8162 27.984L46.5923 24H47.9363L47.4562 32.592H24.3202Z" fill="url(#paint3_linear_307_1112)"/>
<path d="M49.4741 32.592V31.584L50.7701 31.2C51.4421 31.008 51.9541 30.72 52.3061 30.336C52.6901 29.952 52.9941 29.424 53.2181 28.752L62.9141 0.719999H66.8981L76.5461 28.944C76.8021 29.648 77.0901 30.192 77.4101 30.576C77.7301 30.928 78.2421 31.216 78.9461 31.44L79.6661 31.632V32.592H67.4741V31.632L68.2901 31.392C68.9941 31.168 69.4101 30.816 69.5381 30.336C69.6981 29.856 69.6661 29.264 69.4421 28.56L67.4261 22.368H56.8181L54.7541 28.464C54.5301 29.168 54.4661 29.744 54.5621 30.192C54.6581 30.64 55.0581 30.992 55.7621 31.248L56.8181 31.584V32.592H49.4741ZM57.2981 20.976H66.9941L62.2901 6.528L57.2981 20.976Z" fill="#4ECAFE"/>
<path d="M49.4741 32.592V31.584L50.7701 31.2C51.4421 31.008 51.9541 30.72 52.3061 30.336C52.6901 29.952 52.9941 29.424 53.2181 28.752L62.9141 0.719999H66.8981L76.5461 28.944C76.8021 29.648 77.0901 30.192 77.4101 30.576C77.7301 30.928 78.2421 31.216 78.9461 31.44L79.6661 31.632V32.592H67.4741V31.632L68.2901 31.392C68.9941 31.168 69.4101 30.816 69.5381 30.336C69.6981 29.856 69.6661 29.264 69.4421 28.56L67.4261 22.368H56.8181L54.7541 28.464C54.5301 29.168 54.4661 29.744 54.5621 30.192C54.6581 30.64 55.0581 30.992 55.7621 31.248L56.8181 31.584V32.592H49.4741ZM57.2981 20.976H66.9941L62.2901 6.528L57.2981 20.976Z" fill="#883FFF"/>
<path d="M49.4741 32.592V31.584L50.7701 31.2C51.4421 31.008 51.9541 30.72 52.3061 30.336C52.6901 29.952 52.9941 29.424 53.2181 28.752L62.9141 0.719999H66.8981L76.5461 28.944C76.8021 29.648 77.0901 30.192 77.4101 30.576C77.7301 30.928 78.2421 31.216 78.9461 31.44L79.6661 31.632V32.592H67.4741V31.632L68.2901 31.392C68.9941 31.168 69.4101 30.816 69.5381 30.336C69.6981 29.856 69.6661 29.264 69.4421 28.56L67.4261 22.368H56.8181L54.7541 28.464C54.5301 29.168 54.4661 29.744 54.5621 30.192C54.6581 30.64 55.0581 30.992 55.7621 31.248L56.8181 31.584V32.592H49.4741ZM57.2981 20.976H66.9941L62.2901 6.528L57.2981 20.976Z" fill="url(#paint4_linear_307_1112)"/>
<path d="M49.4741 32.592V31.584L50.7701 31.2C51.4421 31.008 51.9541 30.72 52.3061 30.336C52.6901 29.952 52.9941 29.424 53.2181 28.752L62.9141 0.719999H66.8981L76.5461 28.944C76.8021 29.648 77.0901 30.192 77.4101 30.576C77.7301 30.928 78.2421 31.216 78.9461 31.44L79.6661 31.632V32.592H67.4741V31.632L68.2901 31.392C68.9941 31.168 69.4101 30.816 69.5381 30.336C69.6981 29.856 69.6661 29.264 69.4421 28.56L67.4261 22.368H56.8181L54.7541 28.464C54.5301 29.168 54.4661 29.744 54.5621 30.192C54.6581 30.64 55.0581 30.992 55.7621 31.248L56.8181 31.584V32.592H49.4741ZM57.2981 20.976H66.9941L62.2901 6.528L57.2981 20.976Z" fill="url(#paint5_linear_307_1112)"/>
<path d="M84.0135 32.592V31.584L85.4055 31.248C86.0455 31.088 86.4935 30.816 86.7495 30.432C87.0055 30.048 87.1495 29.536 87.1815 28.896V20.208L79.4535 4.416C79.1335 3.776 78.8295 3.296 78.5415 2.976C78.2535 2.656 77.8375 2.4 77.2935 2.208L76.4295 1.872V0.864H89.1495V1.872L88.2855 2.16C87.5815 2.384 87.1975 2.752 87.1335 3.264C87.0695 3.744 87.2135 4.368 87.5655 5.136L93.0375 17.232L98.9415 4.8C99.2295 4.224 99.3575 3.664 99.3255 3.12C99.2935 2.576 98.9575 2.224 98.3175 2.064L97.6455 1.872V0.864H103.934V1.872L102.974 2.16C102.334 2.352 101.87 2.64 101.582 3.024C101.326 3.408 101.054 3.92 100.766 4.56L94.0935 18.432V28.896C94.0935 30.208 94.6695 30.992 95.8215 31.248L97.2615 31.584V32.592H84.0135Z" fill="#4ECAFE"/>
<path d="M84.0135 32.592V31.584L85.4055 31.248C86.0455 31.088 86.4935 30.816 86.7495 30.432C87.0055 30.048 87.1495 29.536 87.1815 28.896V20.208L79.4535 4.416C79.1335 3.776 78.8295 3.296 78.5415 2.976C78.2535 2.656 77.8375 2.4 77.2935 2.208L76.4295 1.872V0.864H89.1495V1.872L88.2855 2.16C87.5815 2.384 87.1975 2.752 87.1335 3.264C87.0695 3.744 87.2135 4.368 87.5655 5.136L93.0375 17.232L98.9415 4.8C99.2295 4.224 99.3575 3.664 99.3255 3.12C99.2935 2.576 98.9575 2.224 98.3175 2.064L97.6455 1.872V0.864H103.934V1.872L102.974 2.16C102.334 2.352 101.87 2.64 101.582 3.024C101.326 3.408 101.054 3.92 100.766 4.56L94.0935 18.432V28.896C94.0935 30.208 94.6695 30.992 95.8215 31.248L97.2615 31.584V32.592H84.0135Z" fill="#883FFF"/>
<path d="M84.0135 32.592V31.584L85.4055 31.248C86.0455 31.088 86.4935 30.816 86.7495 30.432C87.0055 30.048 87.1495 29.536 87.1815 28.896V20.208L79.4535 4.416C79.1335 3.776 78.8295 3.296 78.5415 2.976C78.2535 2.656 77.8375 2.4 77.2935 2.208L76.4295 1.872V0.864H89.1495V1.872L88.2855 2.16C87.5815 2.384 87.1975 2.752 87.1335 3.264C87.0695 3.744 87.2135 4.368 87.5655 5.136L93.0375 17.232L98.9415 4.8C99.2295 4.224 99.3575 3.664 99.3255 3.12C99.2935 2.576 98.9575 2.224 98.3175 2.064L97.6455 1.872V0.864H103.934V1.872L102.974 2.16C102.334 2.352 101.87 2.64 101.582 3.024C101.326 3.408 101.054 3.92 100.766 4.56L94.0935 18.432V28.896C94.0935 30.208 94.6695 30.992 95.8215 31.248L97.2615 31.584V32.592H84.0135Z" fill="url(#paint6_linear_307_1112)"/>
<path d="M84.0135 32.592V31.584L85.4055 31.248C86.0455 31.088 86.4935 30.816 86.7495 30.432C87.0055 30.048 87.1495 29.536 87.1815 28.896V20.208L79.4535 4.416C79.1335 3.776 78.8295 3.296 78.5415 2.976C78.2535 2.656 77.8375 2.4 77.2935 2.208L76.4295 1.872V0.864H89.1495V1.872L88.2855 2.16C87.5815 2.384 87.1975 2.752 87.1335 3.264C87.0695 3.744 87.2135 4.368 87.5655 5.136L93.0375 17.232L98.9415 4.8C99.2295 4.224 99.3575 3.664 99.3255 3.12C99.2935 2.576 98.9575 2.224 98.3175 2.064L97.6455 1.872V0.864H103.934V1.872L102.974 2.16C102.334 2.352 101.87 2.64 101.582 3.024C101.326 3.408 101.054 3.92 100.766 4.56L94.0935 18.432V28.896C94.0935 30.208 94.6695 30.992 95.8215 31.248L97.2615 31.584V32.592H84.0135Z" fill="url(#paint7_linear_307_1112)"/>
<path d="M105.271 32.592V31.536L106.231 31.248C106.839 31.056 107.255 30.752 107.479 30.336C107.703 29.888 107.815 29.312 107.815 28.608V4.848C107.815 4.208 107.735 3.696 107.575 3.312C107.415 2.896 107.015 2.576 106.375 2.352L105.271 1.92V0.864H114.439L123.463 24.336L131.959 0.864H141.319V1.92L140.551 2.16C139.943 2.352 139.527 2.656 139.303 3.072C139.079 3.456 138.967 3.968 138.967 4.608C138.935 6.464 138.919 8.32 138.919 10.176C138.919 12 138.919 13.856 138.919 15.744V17.712C138.919 19.568 138.919 21.424 138.919 23.28C138.919 25.136 138.935 26.976 138.967 28.8C138.967 29.472 139.047 29.984 139.207 30.336C139.367 30.688 139.751 30.976 140.359 31.2L141.319 31.536V32.592H129.655V31.536L130.711 31.2C131.319 30.976 131.687 30.688 131.815 30.336C131.975 29.952 132.055 29.44 132.055 28.8V18.384L132.151 5.52L122.359 32.592H119.671L109.351 5.808L109.543 16.752V28.656C109.543 29.36 109.639 29.92 109.831 30.336C110.023 30.752 110.423 31.04 111.031 31.2L111.991 31.536V32.592H105.271Z" fill="#4ECAFE"/>
<path d="M105.271 32.592V31.536L106.231 31.248C106.839 31.056 107.255 30.752 107.479 30.336C107.703 29.888 107.815 29.312 107.815 28.608V4.848C107.815 4.208 107.735 3.696 107.575 3.312C107.415 2.896 107.015 2.576 106.375 2.352L105.271 1.92V0.864H114.439L123.463 24.336L131.959 0.864H141.319V1.92L140.551 2.16C139.943 2.352 139.527 2.656 139.303 3.072C139.079 3.456 138.967 3.968 138.967 4.608C138.935 6.464 138.919 8.32 138.919 10.176C138.919 12 138.919 13.856 138.919 15.744V17.712C138.919 19.568 138.919 21.424 138.919 23.28C138.919 25.136 138.935 26.976 138.967 28.8C138.967 29.472 139.047 29.984 139.207 30.336C139.367 30.688 139.751 30.976 140.359 31.2L141.319 31.536V32.592H129.655V31.536L130.711 31.2C131.319 30.976 131.687 30.688 131.815 30.336C131.975 29.952 132.055 29.44 132.055 28.8V18.384L132.151 5.52L122.359 32.592H119.671L109.351 5.808L109.543 16.752V28.656C109.543 29.36 109.639 29.92 109.831 30.336C110.023 30.752 110.423 31.04 111.031 31.2L111.991 31.536V32.592H105.271Z" fill="#883FFF"/>
<path d="M105.271 32.592V31.536L106.231 31.248C106.839 31.056 107.255 30.752 107.479 30.336C107.703 29.888 107.815 29.312 107.815 28.608V4.848C107.815 4.208 107.735 3.696 107.575 3.312C107.415 2.896 107.015 2.576 106.375 2.352L105.271 1.92V0.864H114.439L123.463 24.336L131.959 0.864H141.319V1.92L140.551 2.16C139.943 2.352 139.527 2.656 139.303 3.072C139.079 3.456 138.967 3.968 138.967 4.608C138.935 6.464 138.919 8.32 138.919 10.176C138.919 12 138.919 13.856 138.919 15.744V17.712C138.919 19.568 138.919 21.424 138.919 23.28C138.919 25.136 138.935 26.976 138.967 28.8C138.967 29.472 139.047 29.984 139.207 30.336C139.367 30.688 139.751 30.976 140.359 31.2L141.319 31.536V32.592H129.655V31.536L130.711 31.2C131.319 30.976 131.687 30.688 131.815 30.336C131.975 29.952 132.055 29.44 132.055 28.8V18.384L132.151 5.52L122.359 32.592H119.671L109.351 5.808L109.543 16.752V28.656C109.543 29.36 109.639 29.92 109.831 30.336C110.023 30.752 110.423 31.04 111.031 31.2L111.991 31.536V32.592H105.271Z" fill="url(#paint8_linear_307_1112)"/>
<path d="M105.271 32.592V31.536L106.231 31.248C106.839 31.056 107.255 30.752 107.479 30.336C107.703 29.888 107.815 29.312 107.815 28.608V4.848C107.815 4.208 107.735 3.696 107.575 3.312C107.415 2.896 107.015 2.576 106.375 2.352L105.271 1.92V0.864H114.439L123.463 24.336L131.959 0.864H141.319V1.92L140.551 2.16C139.943 2.352 139.527 2.656 139.303 3.072C139.079 3.456 138.967 3.968 138.967 4.608C138.935 6.464 138.919 8.32 138.919 10.176C138.919 12 138.919 13.856 138.919 15.744V17.712C138.919 19.568 138.919 21.424 138.919 23.28C138.919 25.136 138.935 26.976 138.967 28.8C138.967 29.472 139.047 29.984 139.207 30.336C139.367 30.688 139.751 30.976 140.359 31.2L141.319 31.536V32.592H129.655V31.536L130.711 31.2C131.319 30.976 131.687 30.688 131.815 30.336C131.975 29.952 132.055 29.44 132.055 28.8V18.384L132.151 5.52L122.359 32.592H119.671L109.351 5.808L109.543 16.752V28.656C109.543 29.36 109.639 29.92 109.831 30.336C110.023 30.752 110.423 31.04 111.031 31.2L111.991 31.536V32.592H105.271Z" fill="url(#paint9_linear_307_1112)"/>
<path d="M143.523 32.592V31.584L144.483 31.248C145.059 31.088 145.459 30.816 145.683 30.432C145.907 30.016 146.035 29.456 146.067 28.752V4.608C146.035 3.936 145.923 3.424 145.731 3.072C145.539 2.688 145.139 2.4 144.531 2.208L143.523 1.872V0.864H166.371L166.707 8.544H165.363L163.443 4.224C163.187 3.616 162.899 3.152 162.579 2.832C162.259 2.48 161.779 2.304 161.139 2.304H152.979C152.947 4.288 152.931 6.336 152.931 8.448C152.931 10.528 152.931 12.88 152.931 15.504H157.683C158.323 15.504 158.803 15.344 159.123 15.024C159.475 14.672 159.795 14.208 160.083 13.632L160.899 11.808H161.955V20.688H160.899L160.035 18.864C159.779 18.288 159.491 17.824 159.171 17.472C158.851 17.12 158.371 16.944 157.731 16.944H152.931C152.931 19.248 152.931 21.232 152.931 22.896C152.931 24.56 152.931 26.048 152.931 27.36C152.963 28.64 152.979 29.904 152.979 31.152H162.195C162.835 31.152 163.331 30.992 163.683 30.672C164.035 30.32 164.323 29.84 164.547 29.232L166.323 24.912H167.667L167.331 32.592H143.523Z" fill="#4ECAFE"/>
<path d="M143.523 32.592V31.584L144.483 31.248C145.059 31.088 145.459 30.816 145.683 30.432C145.907 30.016 146.035 29.456 146.067 28.752V4.608C146.035 3.936 145.923 3.424 145.731 3.072C145.539 2.688 145.139 2.4 144.531 2.208L143.523 1.872V0.864H166.371L166.707 8.544H165.363L163.443 4.224C163.187 3.616 162.899 3.152 162.579 2.832C162.259 2.48 161.779 2.304 161.139 2.304H152.979C152.947 4.288 152.931 6.336 152.931 8.448C152.931 10.528 152.931 12.88 152.931 15.504H157.683C158.323 15.504 158.803 15.344 159.123 15.024C159.475 14.672 159.795 14.208 160.083 13.632L160.899 11.808H161.955V20.688H160.899L160.035 18.864C159.779 18.288 159.491 17.824 159.171 17.472C158.851 17.12 158.371 16.944 157.731 16.944H152.931C152.931 19.248 152.931 21.232 152.931 22.896C152.931 24.56 152.931 26.048 152.931 27.36C152.963 28.64 152.979 29.904 152.979 31.152H162.195C162.835 31.152 163.331 30.992 163.683 30.672C164.035 30.32 164.323 29.84 164.547 29.232L166.323 24.912H167.667L167.331 32.592H143.523Z" fill="#883FFF"/>
<path d="M143.523 32.592V31.584L144.483 31.248C145.059 31.088 145.459 30.816 145.683 30.432C145.907 30.016 146.035 29.456 146.067 28.752V4.608C146.035 3.936 145.923 3.424 145.731 3.072C145.539 2.688 145.139 2.4 144.531 2.208L143.523 1.872V0.864H166.371L166.707 8.544H165.363L163.443 4.224C163.187 3.616 162.899 3.152 162.579 2.832C162.259 2.48 161.779 2.304 161.139 2.304H152.979C152.947 4.288 152.931 6.336 152.931 8.448C152.931 10.528 152.931 12.88 152.931 15.504H157.683C158.323 15.504 158.803 15.344 159.123 15.024C159.475 14.672 159.795 14.208 160.083 13.632L160.899 11.808H161.955V20.688H160.899L160.035 18.864C159.779 18.288 159.491 17.824 159.171 17.472C158.851 17.12 158.371 16.944 157.731 16.944H152.931C152.931 19.248 152.931 21.232 152.931 22.896C152.931 24.56 152.931 26.048 152.931 27.36C152.963 28.64 152.979 29.904 152.979 31.152H162.195C162.835 31.152 163.331 30.992 163.683 30.672C164.035 30.32 164.323 29.84 164.547 29.232L166.323 24.912H167.667L167.331 32.592H143.523Z" fill="url(#paint10_linear_307_1112)"/>
<path d="M143.523 32.592V31.584L144.483 31.248C145.059 31.088 145.459 30.816 145.683 30.432C145.907 30.016 146.035 29.456 146.067 28.752V4.608C146.035 3.936 145.923 3.424 145.731 3.072C145.539 2.688 145.139 2.4 144.531 2.208L143.523 1.872V0.864H166.371L166.707 8.544H165.363L163.443 4.224C163.187 3.616 162.899 3.152 162.579 2.832C162.259 2.48 161.779 2.304 161.139 2.304H152.979C152.947 4.288 152.931 6.336 152.931 8.448C152.931 10.528 152.931 12.88 152.931 15.504H157.683C158.323 15.504 158.803 15.344 159.123 15.024C159.475 14.672 159.795 14.208 160.083 13.632L160.899 11.808H161.955V20.688H160.899L160.035 18.864C159.779 18.288 159.491 17.824 159.171 17.472C158.851 17.12 158.371 16.944 157.731 16.944H152.931C152.931 19.248 152.931 21.232 152.931 22.896C152.931 24.56 152.931 26.048 152.931 27.36C152.963 28.64 152.979 29.904 152.979 31.152H162.195C162.835 31.152 163.331 30.992 163.683 30.672C164.035 30.32 164.323 29.84 164.547 29.232L166.323 24.912H167.667L167.331 32.592H143.523Z" fill="url(#paint11_linear_307_1112)"/>
<defs>
<linearGradient id="paint0_linear_307_1112" x1="0" y1="16.704" x2="167.667" y2="16.704" gradientUnits="userSpaceOnUse">
<stop stop-color="#FE3EA1" stop-opacity="0"/>
<stop offset="1" stop-color="#FE3EA1"/>
</linearGradient>
<linearGradient id="paint1_linear_307_1112" x1="6.53224e-10" y1="16.6106" x2="167.667" y2="16.9584" gradientUnits="userSpaceOnUse">
<stop stop-color="#FF7F4A" stop-opacity="0"/>
<stop offset="1" stop-color="#FF7F4A"/>
</linearGradient>
<linearGradient id="paint2_linear_307_1112" x1="0" y1="16.704" x2="167.667" y2="16.704" gradientUnits="userSpaceOnUse">
<stop stop-color="#FE3EA1" stop-opacity="0"/>
<stop offset="1" stop-color="#FE3EA1"/>
</linearGradient>
<linearGradient id="paint3_linear_307_1112" x1="6.53224e-10" y1="16.6106" x2="167.667" y2="16.9584" gradientUnits="userSpaceOnUse">
<stop stop-color="#FF7F4A" stop-opacity="0"/>
<stop offset="1" stop-color="#FF7F4A"/>
</linearGradient>
<linearGradient id="paint4_linear_307_1112" x1="0" y1="16.704" x2="167.667" y2="16.704" gradientUnits="userSpaceOnUse">
<stop stop-color="#FE3EA1" stop-opacity="0"/>
<stop offset="1" stop-color="#FE3EA1"/>
</linearGradient>
<linearGradient id="paint5_linear_307_1112" x1="6.53224e-10" y1="16.6106" x2="167.667" y2="16.9584" gradientUnits="userSpaceOnUse">
<stop stop-color="#FF7F4A" stop-opacity="0"/>
<stop offset="1" stop-color="#FF7F4A"/>
</linearGradient>
<linearGradient id="paint6_linear_307_1112" x1="0" y1="16.704" x2="167.667" y2="16.704" gradientUnits="userSpaceOnUse">
<stop stop-color="#FE3EA1" stop-opacity="0"/>
<stop offset="1" stop-color="#FE3EA1"/>
</linearGradient>
<linearGradient id="paint7_linear_307_1112" x1="6.53224e-10" y1="16.6106" x2="167.667" y2="16.9584" gradientUnits="userSpaceOnUse">
<stop stop-color="#FF7F4A" stop-opacity="0"/>
<stop offset="1" stop-color="#FF7F4A"/>
</linearGradient>
<linearGradient id="paint8_linear_307_1112" x1="0" y1="16.704" x2="167.667" y2="16.704" gradientUnits="userSpaceOnUse">
<stop stop-color="#FE3EA1" stop-opacity="0"/>
<stop offset="1" stop-color="#FE3EA1"/>
</linearGradient>
<linearGradient id="paint9_linear_307_1112" x1="6.53224e-10" y1="16.6106" x2="167.667" y2="16.9584" gradientUnits="userSpaceOnUse">
<stop stop-color="#FF7F4A" stop-opacity="0"/>
<stop offset="1" stop-color="#FF7F4A"/>
</linearGradient>
<linearGradient id="paint10_linear_307_1112" x1="0" y1="16.704" x2="167.667" y2="16.704" gradientUnits="userSpaceOnUse">
<stop stop-color="#FE3EA1" stop-opacity="0"/>
<stop offset="1" stop-color="#FE3EA1"/>
</linearGradient>
<linearGradient id="paint11_linear_307_1112" x1="6.53224e-10" y1="16.6106" x2="167.667" y2="16.9584" gradientUnits="userSpaceOnUse">
<stop stop-color="#FF7F4A" stop-opacity="0"/>
<stop offset="1" stop-color="#FF7F4A"/>
</linearGradient>
</defs>
</svg>
